<?xml version="1.0" encoding="iso-8859-1"?>
<!-- Generator: Adobe Illustrator 16.0.0, SVG Export Plug-In . SVG Version: 6.00 Build 0)  -->
<!DOCTYPE svg PUBLIC "-//W3C//DTD SVG 1.1//EN" "http://www.w3.org/Graphics/SVG/1.1/DTD/svg11.dtd">
<svg version="1.1" id="Capa_1" xmlns="http://www.w3.org/2000/svg" xmlns:xlink="http://www.w3.org/1999/xlink" x="0px" y="0px"
	  viewBox="0 0 540.52 540.519" style="enable-background:new 0 0 540.52 540.519;"
	 xml:space="preserve">
<g>
	<g>
		<path d="M127.76,448.919h-16.636l-5.129-15.812c-1.767-5.461-4.658-5.461-6.427,0l-5.146,15.812h-16.62
			c-5.754,0-6.636,2.749-1.986,6.118l13.448,9.769l-5.147,15.816c-1.767,5.475,0.562,7.159,5.201,3.79l13.448-9.782l13.467,9.782
			c4.642,3.369,6.968,1.671,5.185-3.79l-5.131-15.816l13.448-9.769C134.387,451.659,133.5,448.919,127.76,448.919z"/>
		<path d="M437.379,465.665h-16.62l-5.143-15.821c-1.77-5.451-4.658-5.451-6.427,0l-5.129,15.821h-16.643
			c-5.731,0-6.613,2.74-1.979,6.109l13.446,9.777l-5.129,15.808c-1.788,5.475,0.555,7.159,5.185,3.79l13.465-9.782l13.445,9.782
			c4.644,3.369,6.982,1.68,5.19-3.79l-5.134-15.808l13.45-9.777C444.011,468.405,443.138,465.665,437.379,465.665z"/>
		<path d="M285.147,503.295h-16.622l-5.148-15.812c-1.766-5.466-4.639-5.466-6.426,0l-5.127,15.812h-16.638
			c-5.736,0-6.618,2.744-1.986,6.119l13.448,9.768l-5.129,15.812c-1.767,5.475,0.542,7.159,5.201,3.789l13.448-9.777l13.448,9.777
			c4.656,3.37,6.971,1.676,5.202-3.789l-5.147-15.812l13.45-9.768C291.784,506.036,290.897,503.295,285.147,503.295z"/>
		<path d="M35.9,279.388c19.646,111.59,117.228,196.671,234.357,196.671c115.634,0,212.238-82.902,233.589-192.382
			c0.099-0.43,0.168-0.845,0.229-1.256c2.729-14.398,4.214-29.225,4.214-44.393C508.29,106.781,401.512,0,270.257,0
			C139.007,0,32.229,106.781,32.229,238.028c0,13.775,1.241,27.267,3.486,40.408C35.779,278.739,35.837,279.066,35.9,279.388z
			 M145.254,397.39c-36.751-28.894-63.328-70.184-73.299-117.54l63.157-90.122c10.142-3.208,22.563-3.862,31.181,6.903
			c6.238,7.803,14.321,11.917,23.364,11.917c0.126,0,0.226,0,0.354,0c13.077-0.151,25.771-8.944,34.949-17.336l10.625,13.605
			l-113.28,108.664c-11.917,12.27-8.917,23.699-7.078,28.054s7.965,14.463,25.064,14.463h4.961V397.39L145.254,397.39z
			 M148.839,170.146l28.25-40.312l36.938,47.353c-7.225,6.797-16.478,13.6-24.234,13.69c-2.317-0.009-5.871-0.497-9.714-5.283
			C171.215,174.502,160.033,170.414,148.839,170.146z M344.938,320.645v105.742c-9.227,3.663-18.762,6.659-28.581,8.965v-44.804
			h-39.772v49.989c-2.105,0.079-4.198,0.168-6.319,0.168c-6.462,0-12.851-0.336-19.147-0.934v-49.224h-39.775v41.383
			c-10.657-3.239-20.906-7.341-30.729-12.209v-99.077h-14.729l98.443-94.425l66.907,68.909v-59.038h11.435V306.9l13.348,13.759
			h-11.08V320.645z M380.3,408.101v-52.104h0.052c17.1,0,23.219-10.104,25.071-14.463c1.834-4.35,4.826-15.784-7.085-28.054
			l-20.315-20.923v-61.454c0-16.748-13.628-30.375-30.373-30.375h-21.38c-10.268,0-19.35,5.11-24.848,12.93l-3.879-3.977
			l22.412-28.691c9.344-2.193,19.909-1.605,27.517,7.899c6.235,7.806,14.323,11.929,23.363,11.929c0.126,0,0.229,0,0.354,0
			c10.655-0.126,21.063-6,29.524-12.708l66.978,95.617C455.669,335.626,423.699,379.926,380.3,408.101z M334.227,162.694
			l25.664-32.852l30.64,43.745c-6.553,5.328-13.665,9.495-19.573,9.567c-2.077,0.103-5.853-0.487-9.698-5.292
			C353.521,168.167,343.977,163.835,334.227,162.694z M270.265,35.344c108.836,0,197.884,86.236,202.467,193.966l-85.51-122.067
			c-6.44-9.199-16.051-14.617-26.388-14.881c-10.516-0.254-20.228,4.66-27.135,13.501l-65.236,83.618l-65.223-83.618
			c-6.923-8.851-16.729-13.789-27.129-13.501c-10.342,0.264-19.966,5.682-26.411,14.89L68.152,223.656
			C75.544,118.582,163.339,35.344,270.265,35.344z"/>
		<rect x="211.343" y="323.165" width="39.775" height="57.093"/>
		<rect x="276.584" y="323.165" width="39.772" height="57.093"/>
	</g>
</g>
<g>
</g>
<g>
</g>
<g>
</g>
<g>
</g>
<g>
</g>
<g>
</g>
<g>
</g>
<g>
</g>
<g>
</g>
<g>
</g>
<g>
</g>
<g>
</g>
<g>
</g>
<g>
</g>
<g>
</g>
</svg>
